<svg width="16" height="16" viewBox="0 0 16 16" fill="none" xmlns="http://www.w3.org/2000/svg">
<path fill-rule="evenodd" clip-rule="evenodd" d="M14.2 13.1V7.7498L12.8079 3.7408C12.6609 3.30765 12.2499 3 11.7667 3H4.43333C3.94886 3 3.54564 3.30944 3.3922 3.74053L2 7.7498V13.1C2 13.5219 2.34477 13.8667 2.76667 13.8667H3.43333C3.85523 13.8667 4.2 13.5219 4.2 13.1V12.5333H12V13.1C12 13.5219 12.3448 13.8667 12.7667 13.8667H13.4333C13.8552 13.8667 14.2 13.5219 14.2 13.1ZM14.1 7.76667L12.7133 3.77333C12.58 3.38 12.2067 3.1 11.7667 3.1H4.43333C4.34818 3.1 4.26578 3.11049 4.18724 3.13025C4.26567 3.11055 4.34794 3.1001 4.43294 3.1001H11.7663C12.2063 3.1001 12.5796 3.3801 12.7129 3.77343L14.0996 7.76676V13.1001C14.0996 13.4077 13.8884 13.6684 13.6039 13.7444C13.8886 13.6686 14.1 13.4078 14.1 13.1V7.76667ZM4.1 12.4334H4.09961V13.1001C4.09961 13.4074 3.88894 13.6678 3.60492 13.7441C3.88914 13.6679 4.1 13.4074 4.1 13.1V12.4334ZM4.43336 4.1001C4.43292 4.10071 4.43053 4.10413 4.42921 4.10748L3.3322 7.26667H12.8674L12.8674 7.26676H3.33181L4.42882 4.10758C4.43027 4.10388 4.43304 4.1001 4.43304 4.1001H4.43336ZM4.50294 4.2H11.6971L12.7272 7.16667H3.47278L4.50294 4.2ZM13.0996 11.4333H3.1V8.26676H3.09961V11.4334H13.0996V11.4333ZM13 11.3333H3.2V8.36667H13V11.3333ZM5.1 10.8665C5.70751 10.8665 6.2 10.374 6.2 9.7665C6.2 9.15899 5.70751 8.6665 5.1 8.6665C4.49249 8.6665 4 9.15899 4 9.7665C4 10.374 4.49249 10.8665 5.1 10.8665ZM11.1 10.8665C11.7075 10.8665 12.2 10.374 12.2 9.7665C12.2 9.15899 11.7075 8.6665 11.1 8.6665C10.4925 8.6665 10 9.15899 10 9.7665C10 10.374 10.4925 10.8665 11.1 10.8665ZM4.85889 8.79576C4.93599 8.77671 5.01662 8.7666 5.09961 8.7666C5.65189 8.7666 6.09961 9.21432 6.09961 9.7666C6.09961 10.2358 5.77653 10.6295 5.34072 10.7373C5.77673 10.6296 6.1 10.2358 6.1 9.7665C6.1 9.21422 5.65228 8.7665 5.1 8.7665C5.01687 8.7665 4.93611 8.77665 4.85889 8.79576ZM10.8589 8.79576C10.936 8.77671 11.0166 8.7666 11.0996 8.7666C11.6519 8.7666 12.0996 9.21432 12.0996 9.7666C12.0996 10.2358 11.7765 10.6295 11.3407 10.7373C11.7767 10.6296 12.1 10.2358 12.1 9.7665C12.1 9.21422 11.6523 8.7665 11.1 8.7665C11.0169 8.7665 10.9361 8.77665 10.8589 8.79576Z" fill="#25272D"/>
</svg>
