<svg width="16" height="16" viewBox="0 0 16 16" fill="none" xmlns="http://www.w3.org/2000/svg">
<path d="M7.78308 14H12.069C12.4788 14 13.2984 14 12.8886 12.7617C12.4788 11.5235 12.0808 11.2758 11.2612 11.2758C10.5029 11.2758 8.41398 11.6163 7.78308 11.7299M7.78308 14L7.37327 12.349M7.78308 14H5.10232L5.10235 12.7617C5.10237 12.606 5.12571 12.4676 5.16648 12.349M7.37327 12.349C7.55718 12.3181 7.61258 11.7606 7.78308 11.7299M7.37327 12.349C7.03257 11.6628 5.36733 11.7649 5.16648 12.349M7.78308 11.7299C7.66145 9.34581 6.60304 7.43727 5.60886 6.28157C5.12863 5.72331 4.64709 5.57953 4.23728 5.57969C3.82747 5.57985 3.25448 5.91066 3.41768 6.40519C3.74468 7.39608 3.82748 7.64345 3.82748 7.64345C4.6714 9.66592 5.16648 12.349 5.16648 12.349M2.50069 2.49997C2.50069 2.95411 2.45212 4.04018 2.86953 4.04018C3.28695 4.04018 4.5 4 4.5 4C4.5 4 4.93546 2.45394 4.50069 1.99992C4.06592 1.54589 2.50069 1.59192 2.50069 2.49997Z" stroke="#25272D" stroke-width="1.1"/>
</svg>
