<?xml version="1.0" encoding="UTF-8"?>
<svg width="27px" height="27px" viewBox="0 0 27 27" version="1.1" xmlns="http://www.w3.org/2000/svg" xmlns:xlink="http://www.w3.org/1999/xlink">
    <!-- Generator: Sketch 52.3 (67297) - http://www.bohemiancoding.com/sketch -->
    <title>hover delete field</title>
    <desc>Created with Sketch.</desc>
    <g id="Register-userflow" stroke="none" stroke-width="1" fill="none" fill-rule="evenodd">
        <g id="Tool-tip" transform="translate(-1528.000000, -609.000000)">
            <g id="Group-17" transform="translate(1145.000000, 609.000000)">
                <g id="hover-delete-field" transform="translate(383.000000, 0.000000)">
                    <circle id="Oval-Copy-7" fill="#FFFFFF" cx="13.5" cy="13.5" r="13.5"></circle>
                    <g id="Shape-2-Copy" transform="translate(4.000000, 4.000000)" fill="#DEE3EE" fill-rule="nonzero">
                        <path d="M18.5,9.5 C18.5,4.52943724 14.4705628,0.5 9.5,0.5 C4.52943724,0.5 0.5,4.52943724 0.5,9.5 C0.5,14.4705628 4.52943724,18.5 9.5,18.5 C14.4705628,18.5 18.5,14.4705628 18.5,9.5 Z M1.95945946,9.5 C1.95945946,5.33547446 5.33547446,1.95945946 9.5,1.95945946 C13.6645255,1.95945946 17.0405405,5.33547446 17.0405405,9.5 C17.0405405,13.6645255 13.6645255,17.0405405 9.5,17.0405405 C5.33547446,17.0405405 1.95945946,13.6645255 1.95945946,9.5 Z M10.5319937,9.5 L12.9349158,11.9029221 C13.2198929,12.1878993 13.2198929,12.6499386 12.9349158,12.9349158 C12.6499386,13.2198929 12.1878993,13.2198929 11.9029221,12.9349158 L9.5,10.5319937 L7.09707794,12.9349158 C6.81210072,13.2198929 6.35006144,13.2198929 6.06508423,12.9349158 C5.78010706,12.6499386 5.78010706,12.1878993 6.06508423,11.9029221 L8.46800634,9.5 L6.06508423,7.09707794 C5.78010706,6.81210072 5.78010706,6.35006144 6.06508423,6.06508423 C6.35006144,5.78010706 6.81210072,5.78010706 7.09707794,6.06508423 L9.5,8.46800634 L11.9029221,6.06508423 C12.1878993,5.78010706 12.6499386,5.78010706 12.9349158,6.06508423 C13.2198929,6.35006144 13.2198929,6.81210072 12.9349158,7.09707794 L10.5319937,9.5 Z" id="Shape"></path>
                    </g>
                </g>
            </g>
        </g>
    </g>
</svg>
