<svg width="16" height="16" viewBox="0 0 16 16" fill="none" xmlns="http://www.w3.org/2000/svg">
<path fill-rule="evenodd" clip-rule="evenodd" d="M8.20001 12.8C7.10681 12.8 5.20001 8.60541 5.20001 6.20001C5.20001 4.54581 6.54581 3.20001 8.20001 3.20001C9.85421 3.20001 11.2 4.54581 11.2 6.20001C11.2 8.60541 9.29321 12.8 8.20001 12.8ZM8.2 2C5.8804 2 4 3.8804 4 6.2C4 8.5196 5.8804 14 8.2 14C10.5196 14 12.4 8.5196 12.4 6.2C12.4 3.8804 10.5196 2 8.2 2ZM8.20001 7.18102C7.86941 7.18102 7.60001 6.91222 7.60001 6.58102C7.60001 6.25042 7.86941 5.98102 8.20001 5.98102C8.53061 5.98102 8.80001 6.25042 8.80001 6.58102C8.80001 6.91222 8.53061 7.18102 8.20001 7.18102ZM8.19999 4.78101C7.20579 4.78101 6.39999 5.58741 6.39999 6.58101C6.39999 7.57521 7.20579 8.38101 8.19999 8.38101C9.19419 8.38101 9.99999 7.57521 9.99999 6.58101C9.99999 5.58741 9.19419 4.78101 8.19999 4.78101Z" fill="#A6A8AF"/>
</svg>
