<svg width="16" height="16" viewBox="0 0 16 16" fill="none" xmlns="http://www.w3.org/2000/svg">
<path fill-rule="evenodd" clip-rule="evenodd" d="M8 9.31111C9.8925 9.31111 11.479 10.4708 11.892 12.454H4.108C4.521 10.4708 6.1075 9.31111 8 9.31111ZM6 6.16825C6 5.01272 6.897 4.07301 8 4.07301C9.103 4.07301 10 5.01272 10 6.16825C10 7.32377 9.103 8.26349 8 8.26349C6.897 8.26349 6 7.32377 6 6.16825ZM9.879 8.61601C10.562 8.04034 11 7.15825 11 6.16825C11 4.43234 9.657 3.02539 8 3.02539C6.343 3.02539 5 4.43234 5 6.16825C5 7.15825 5.438 8.04034 6.121 8.61601C4.2915 9.33625 3 11.1156 3 13.5016H13C13 11.1156 11.7085 9.33625 9.879 8.61601Z" fill="#A6A8AF"/>
</svg>
