<svg width="24" height="24" viewBox="0 0 24 24" fill="none" xmlns="http://www.w3.org/2000/svg">
<path fill-rule="evenodd" clip-rule="evenodd" d="M18.364 18.364C18.3639 18.364 18.364 18.3639 18.364 18.364C14.8492 21.8787 9.15076 21.8787 5.63604 18.364C2.12132 14.8492 2.12132 9.15076 5.63604 5.63604C7.4561 3.81598 9.86174 2.93842 12.2465 3.00336C14.4671 3.06375 16.6695 3.94131 18.3643 5.63605C21.879 9.15077 21.8787 14.8492 18.364 18.364ZM16.9497 16.9497C16.9497 16.9498 16.9498 16.9497 16.9497 16.9497C14.2161 19.6834 9.78392 19.6834 7.05025 16.9497C4.31658 14.2161 4.31658 9.78392 7.05025 7.05025C7.0503 7.0502 7.0502 7.0503 7.05025 7.05025L16.9497 16.9497Z" fill="#160D0D"/>
</svg>
