<svg width="158" height="47" viewBox="0 0 158 47" fill="none" xmlns="http://www.w3.org/2000/svg">
<path d="M9.72731 19.6733H25.4531C25.3518 20.2205 25.2505 20.7292 25.1208 21.2013C24.9911 21.6735 24.8594 22.1214 24.7155 22.5429C24.3293 23.5563 23.8715 24.541 23.3456 25.4895H14.1999L12.5442 30.039H19.7404C19.59 31.0285 19.3485 32.002 19.0189 32.9471C18.6287 33.9652 18.1578 34.9506 17.6105 35.8936H10.4143L6.60039 46.3708C5.47563 46.5685 4.33753 46.6809 3.19583 46.7072C2.12263 46.6909 1.05306 46.5783 0 46.3708L9.72731 19.6733Z" fill="url(#paint0_linear)"/>
<path d="M20.7941 46.4072C20.1834 46.5044 19.6342 46.5787 19.1465 46.6301C18.6541 46.6787 18.1859 46.7051 17.7279 46.7051C17.222 46.7008 16.7167 46.6697 16.2141 46.6118C15.6521 46.5483 15.034 46.4551 14.3599 46.3322L32.3959 19.7077C33.0687 19.6327 33.6949 19.5719 34.2725 19.5213C34.85 19.4706 35.4236 19.4463 35.995 19.4463C36.4672 19.4463 36.9759 19.4726 37.517 19.5213C38.058 19.5699 38.6741 19.6327 39.3692 19.7077L37.906 46.3687C36.6323 46.5733 35.3455 46.6857 34.0557 46.7051C33.5663 46.7049 33.0773 46.6798 32.5905 46.6301C32.1095 46.5801 31.6022 46.5058 31.0686 46.4072L31.5387 41.2233C30.8276 41.4101 30.1072 41.5596 29.3805 41.6712C28.7392 41.7679 28.0916 41.8173 27.4431 41.8191C26.8725 41.8196 26.3027 41.7763 25.7388 41.6894C25.1563 41.5989 24.5807 41.4682 24.0163 41.2983L20.7941 46.4072ZM33.1802 26.7175L27.1938 36.3009C27.5496 36.4198 27.9115 36.5192 28.278 36.5988C28.6445 36.6756 29.0182 36.713 29.3926 36.7102C29.8219 36.7102 30.2506 36.679 30.6754 36.617C31.1429 36.5494 31.6063 36.456 32.0636 36.3374L33.1802 26.7175Z" fill="url(#paint1_linear)"/>
<path d="M101.934 27.8628C102.062 27.8445 102.23 27.8323 102.441 27.8222C102.651 27.8121 102.846 27.8101 103.016 27.8101C103.186 27.8101 103.397 27.8101 103.594 27.8222C103.79 27.8344 103.944 27.8445 104.058 27.8628L103.497 46.4825C103.346 46.504 103.194 46.5168 103.043 46.521C102.84 46.5311 102.666 46.5351 102.493 46.5351C102.321 46.5351 102.175 46.5351 102.007 46.521C101.864 46.5157 101.721 46.5028 101.579 46.4825L101.752 41.7444H94.0874L90.8855 46.4825C90.7416 46.5007 90.5774 46.5128 90.393 46.521C90.2086 46.5291 90.0384 46.5351 89.8823 46.5351C89.7263 46.5351 89.5358 46.5351 89.3575 46.521C89.2217 46.5167 89.0863 46.5039 88.9521 46.4825L101.934 27.8628ZM101.837 40.0867L102.266 29.7272L95.206 40.0867H101.837Z" fill="#160D0D"/>
<path d="M113.439 27.7835L114.468 27.6943L115.325 27.6153C115.603 27.5889 115.889 27.5727 116.187 27.5646C116.484 27.5565 116.829 27.5504 117.226 27.5504C118.018 27.5466 118.807 27.6336 119.579 27.8098C120.256 27.951 120.888 28.2581 121.417 28.7035C121.913 29.1483 122.238 29.7527 122.335 30.4119C122.463 31.1293 122.328 32.0317 121.93 33.1193C121.689 33.7844 121.34 34.4053 120.898 34.9574C120.458 35.5065 119.959 36.006 119.411 36.4469C118.864 36.8859 118.273 37.2676 117.648 37.5858C117.05 37.8947 116.43 38.1589 115.793 38.3761L115.558 38.4551L118.568 46.4822C118.391 46.5162 118.211 46.5338 118.031 46.5349H117.011C116.848 46.5346 116.685 46.517 116.525 46.4822L113.139 37.8593L113.175 37.754L113.801 37.5999C114.458 37.4408 115.103 37.2377 115.733 36.992C116.359 36.7511 116.96 36.4477 117.526 36.0861C118.074 35.7365 118.572 35.3138 119.005 34.8297C119.451 34.3315 119.795 33.7513 120.019 33.1213C120.509 31.7703 120.462 30.7571 119.879 30.0815C119.295 29.406 118.295 29.0683 116.88 29.0683C116.517 29.0683 116.176 29.0683 115.866 29.0946C115.556 29.121 115.165 29.1473 114.715 29.198L108.433 46.4721C108.305 46.4903 108.155 46.5025 107.979 46.5106C107.803 46.5187 107.647 46.5248 107.509 46.5248C107.371 46.5248 107.199 46.5248 107.047 46.5106C106.911 46.5047 106.776 46.4918 106.642 46.4721L113.439 27.7835Z" fill="#160D0D"/>
<path d="M130.67 29.4679H125.671C125.697 29.3414 125.729 29.2163 125.768 29.093C125.813 28.9451 125.861 28.8032 125.912 28.6654C125.962 28.5276 126.009 28.406 126.076 28.2601C126.143 28.1142 126.2 27.9764 126.256 27.873H138.039C138.014 27.9955 137.982 28.1165 137.945 28.2358C137.905 28.3736 137.858 28.5114 137.808 28.6411C137.757 28.7708 137.708 28.9045 137.639 29.0687C137.57 29.2328 137.51 29.3666 137.455 29.474H132.455L126.262 46.4968C126.137 46.515 125.993 46.5272 125.835 46.5353C125.677 46.5434 125.519 46.5495 125.365 46.5495C125.211 46.5495 125.024 46.5495 124.864 46.5353C124.734 46.5308 124.605 46.518 124.477 46.4968L130.67 29.4679Z" fill="#160D0D"/>
<path d="M134.193 44.4112C134.407 44.4801 134.63 44.5571 134.857 44.6442C135.113 44.7394 135.375 44.8173 135.642 44.8773C135.935 44.9462 136.272 45.007 136.655 45.0577C137.101 45.1145 137.551 45.1409 138 45.1367C138.756 45.1452 139.509 45.0448 140.236 44.8388C140.862 44.6576 141.457 44.3844 142.003 44.0282C142.985 43.3903 143.732 42.4498 144.131 41.3491C144.3 40.9234 144.398 40.473 144.422 40.0157C144.43 39.6515 144.325 39.2939 144.12 38.9923C143.856 38.6274 143.517 38.3228 143.125 38.0986C142.554 37.754 141.961 37.4467 141.35 37.1785C140.85 36.9661 140.363 36.7238 139.891 36.453C139.466 36.2167 139.094 35.8952 138.799 35.5087C138.512 35.119 138.34 34.6573 138.3 34.1752C138.246 33.6564 138.361 33.0086 138.645 32.2318C139.159 30.8265 140.126 29.6327 141.395 28.8394C142.717 27.9761 144.346 27.5444 146.281 27.5444C146.66 27.5444 147.039 27.5627 147.414 27.5971C147.789 27.6316 148.137 27.6741 148.455 27.7268C148.747 27.7723 149.035 27.8325 149.321 27.9072C149.581 27.9761 149.788 28.0369 149.941 28.0896C149.812 28.3476 149.669 28.6104 149.511 28.8779C149.353 29.1474 149.187 29.4007 149.015 29.6419C148.54 29.4761 148.053 29.3507 147.557 29.267C146.941 29.1543 146.316 29.098 145.689 29.0988C144.257 29.0988 143.123 29.3926 142.286 29.9803C141.486 30.5221 140.876 31.302 140.544 32.2095C140.383 32.5934 140.329 33.0133 140.386 33.4254C140.447 33.766 140.607 34.081 140.846 34.3313C141.122 34.6166 141.44 34.8572 141.79 35.0446C142.179 35.2621 142.603 35.4735 143.063 35.6789C143.68 35.9721 144.247 36.274 144.765 36.5848C145.24 36.8616 145.653 37.2318 145.981 37.673C146.286 38.104 146.47 38.6095 146.512 39.1362C146.544 39.8293 146.424 40.5212 146.159 41.1627C145.854 42.0364 145.4 42.8508 144.818 43.5702C144.252 44.2635 143.576 44.8591 142.817 45.3333C142.028 45.8203 141.17 46.1865 140.272 46.4195C139.298 46.6756 138.294 46.8024 137.287 46.7964C136.462 46.8144 135.638 46.7403 134.829 46.5755C134.25 46.4421 133.681 46.2736 133.123 46.0709C133.269 45.7808 133.432 45.4993 133.611 45.2279C133.791 44.946 133.985 44.6734 134.193 44.4112Z" fill="#160D0D"/>
<path d="M59.0508 31.3991C58.2967 30.9212 57.5129 30.492 56.7041 30.1142L55.172 29.405C54.6691 29.193 54.21 28.8892 53.8183 28.5092C53.4738 28.1634 53.4326 27.6291 53.6947 26.9063C53.8323 26.51 54.0535 26.1478 54.3432 25.8444C54.6102 25.5656 54.9262 25.3382 55.2754 25.1736C55.6259 25.0098 55.9956 24.8907 56.3758 24.8189C56.7638 24.7442 57.158 24.7069 57.5532 24.7075C58.8447 24.7075 59.8715 24.8561 60.6335 25.1533H60.6497C60.7176 25.1802 60.7927 25.1831 60.8625 25.1617C60.9324 25.1403 60.9929 25.0958 61.0341 25.0355C61.0753 24.9752 61.0948 24.9026 61.0894 24.8298C61.084 24.7569 61.054 24.6881 61.0043 24.6345L56.9067 20.2653C56.6832 20.0268 56.3987 19.8539 56.084 19.7653C55.7694 19.6768 55.4365 19.6759 55.1213 19.7628H55.1112C52.6089 20.4568 50.3906 21.9253 48.7743 23.9577C47.9308 25.0104 47.2679 26.1958 46.8126 27.4656C46.4598 28.3579 46.2604 29.3034 46.2229 30.2622C46.2049 30.9899 46.3576 31.7117 46.6687 32.3698C46.978 32.9901 47.4243 33.532 47.9738 33.9545C48.5935 34.4301 49.2753 34.8187 50.0003 35.1096L51.8039 35.8939C52.0816 36.0175 52.3491 36.1492 52.6145 36.285C52.8615 36.4113 53.0833 36.5816 53.2691 36.7876C53.4482 36.9927 53.5636 37.2455 53.6015 37.5151C53.6384 37.8641 53.5868 38.2167 53.4515 38.5405C53.3075 38.9784 53.0743 39.3816 52.7667 39.7248C52.4591 40.068 52.0836 40.3438 51.6641 40.5346C50.8157 40.921 49.7571 41.1142 48.4885 41.1142C46.7984 41.1142 44.9908 40.617 43.0656 39.6227C42.3455 40.6414 41.6828 41.6418 41.0775 42.624C40.5172 43.5194 40.0051 44.4442 39.5435 45.3942C40.637 45.8882 41.7758 46.275 42.944 46.5494C44.2421 46.8189 45.566 46.944 46.8916 46.9222C48.4841 46.9382 50.071 46.7336 51.6074 46.3143C53.0012 45.9322 54.3293 45.3419 55.5469 44.5634C56.694 43.8247 57.7138 42.9048 58.5664 41.8397C59.4199 40.7702 60.0909 39.5672 60.5524 38.2791C60.9969 37.0632 61.2131 36.0256 61.2009 35.1664C61.2135 34.3937 61.0137 33.6325 60.6234 32.9656C60.2235 32.3319 59.686 31.7965 59.0508 31.3991Z" fill="url(#paint2_linear)"/>
<path d="M93.8727 30.6006C93.8332 29.9483 93.5681 29.33 93.1229 28.8517C92.6302 28.3694 92.016 28.0297 91.3456 27.8688C90.4771 27.6478 89.5829 27.5442 88.6868 27.5608C88.3768 27.5608 88.0221 27.575 87.6229 27.5993L86.4556 27.6783C86.0746 27.7047 85.722 27.7391 85.3957 27.7817C85.0695 27.8243 84.8162 27.8546 84.6378 27.8729L78.8643 43.7345L80.1511 45.1085L82.3053 39.189C82.6721 39.2255 82.9984 39.2498 83.2861 39.268C83.5739 39.2863 83.9164 39.2923 84.3136 39.2923C85.2404 39.2912 86.1638 39.1783 87.0636 38.9559C87.9752 38.7359 88.8479 38.3778 89.6514 37.894C90.4822 37.3906 91.2227 36.7515 91.8421 36.0033C92.5282 35.1715 93.0613 34.2247 93.4167 33.2067C93.7883 32.1826 93.9402 31.3139 93.8727 30.6006ZM91.526 33.2026C91.2451 34.0408 90.8085 34.8184 90.2391 35.4946C89.7656 36.0429 89.1955 36.4997 88.5571 36.8423C87.9708 37.1539 87.3377 37.3682 86.6826 37.4766C86.0561 37.5789 85.4225 37.6311 84.7878 37.6326C84.5284 37.6326 84.3176 37.6326 84.1575 37.6184C83.9974 37.6043 83.8536 37.6022 83.7259 37.5921L83.3469 37.5678C83.2213 37.5678 83.0733 37.5455 82.9072 37.5272L85.8963 29.3178C86.1327 29.284 86.4286 29.2536 86.7839 29.2266C87.1386 29.2023 87.5398 29.1881 87.9897 29.1881C88.6608 29.1762 89.3308 29.2442 89.9858 29.3908C90.4836 29.4903 90.9451 29.7228 91.3213 30.0636C91.6478 30.3932 91.843 30.8305 91.8705 31.2937C91.8939 31.9454 91.7763 32.5944 91.526 33.1966V33.2026Z" fill="#160D0D"/>
<path d="M137.115 12.4287C122.741 9.61991 96.8011 12.1044 96.8011 12.1044C96.8011 12.1044 82.4634 0 62.9277 0C53.7273 0 46.0245 0.887618 39.6815 2.14406L39.112 1.52395C38.9764 1.37877 38.7903 1.29112 38.592 1.27906C38.3937 1.26699 38.1983 1.33143 38.0461 1.4591L37.7198 1.73268C37.5867 1.84228 37.4945 1.99369 37.4584 2.1623L37.3449 2.63448C34.8502 3.19178 32.5866 3.80379 30.5459 4.42998C22.9809 6.7544 17.4971 7.0523 16.8203 7.21443C15.8481 7.49718 14.9107 7.88804 14.0257 8.37968C13.9058 8.44697 13.8108 8.5512 13.7548 8.67685C13.6989 8.8025 13.6851 8.94284 13.7154 9.07699C13.7457 9.21114 13.8185 9.33191 13.923 9.42134C14.0274 9.51077 14.158 9.56407 14.2952 9.5733L15.7908 9.6726H15.8374C15.8374 9.6726 14.0135 10.3758 13.3144 10.9513C12.6152 11.5269 10.7954 15.2395 10.7954 15.2395C20.776 14.8342 27.2103 11.6262 28.8031 10.7386C32.0455 10.9635 40.4293 11.7518 49.8384 12.9961L53.3119 16.7067L54.3049 16.6621H88.3951C88.3951 16.6621 130.103 7.61568 139.804 16.7391C139.942 16.8429 140.072 16.956 140.195 17.0775C141.269 18.1495 145.168 22.9544 151.835 22.8592C157.647 28.6895 155.915 34.8157 155.686 36.0093C155.66 36.1379 155.681 36.2716 155.747 36.3854C155.812 36.4991 155.917 36.5851 156.041 36.6271C156.166 36.6691 156.301 36.6643 156.422 36.6137C156.543 36.563 156.642 36.4699 156.699 36.3518C161.82 26.2941 151.106 15.1645 137.115 12.4287ZM45.8847 8.78093L44.1196 6.89018C44.1196 6.89018 70.1422 -6.5862 94.8556 12.2199C94.8556 12.2139 64.4659 14.9497 45.8847 8.7708V8.78093Z" fill="#160D0D"/>
<path d="M68.8189 19.6736C68.2811 20.5907 67.8196 21.5505 67.4388 22.5431C67.0978 23.499 66.8508 24.4859 66.7012 25.4897H72.9287L70.0632 33.3648C69.989 33.5708 69.973 33.7932 70.017 34.0077C70.061 34.2222 70.1632 34.4205 70.3124 34.5807L74.5681 39.1241L79.5331 25.4836H103.592L105.487 22.7681L107.651 19.6675L68.8189 19.6736Z" fill="url(#paint3_linear)"/>
<g style="mix-blend-mode:multiply" opacity="0.2">
<g style="mix-blend-mode:multiply" opacity="0.2">
<path d="M78.992 19.6733H68.8189C68.2811 20.5905 67.8196 21.5502 67.4388 22.5429C67.0978 23.4988 66.8508 24.4856 66.7012 25.4895H70.7785C72.3815 23.1549 75.3159 21.2398 78.992 19.6733Z" fill="#230000"/>
</g>
</g>
<g opacity="0.2">
<path opacity="0.2" d="M65.3291 46.3707C66.3822 46.5783 67.4517 46.6909 68.5249 46.7071C69.6666 46.6808 70.8047 46.5684 71.9295 46.3707L74.2559 39.977L70.1806 35.6241C70.1099 35.5485 70.0211 35.4923 69.9225 35.4607C69.824 35.4291 69.719 35.4232 69.6176 35.4434C69.5161 35.4637 69.4215 35.5096 69.3427 35.5767C69.2639 35.6437 69.2036 35.7298 69.1673 35.8267L65.3291 46.3707Z" fill="black"/>
</g>
<defs>
<linearGradient id="paint0_linear" x1="-12.1551" y1="36.0436" x2="148.615" y2="12.1306" gradientUnits="userSpaceOnUse">
<stop stop-color="#DE1A22"/>
<stop offset="1" stop-color="#230000"/>
</linearGradient>
<linearGradient id="paint1_linear" x1="-1413.42" y1="5398.69" x2="18495.7" y2="2681.82" gradientUnits="userSpaceOnUse">
<stop stop-color="#DE1A22"/>
<stop offset="1" stop-color="#230000"/>
</linearGradient>
<linearGradient id="paint2_linear" x1="-1154.03" y1="5755.48" x2="16165.8" y2="3706.24" gradientUnits="userSpaceOnUse">
<stop stop-color="#DE1A22"/>
<stop offset="1" stop-color="#230000"/>
</linearGradient>
<linearGradient id="paint3_linear" x1="-2218.31" y1="4027.74" x2="28023.6" y2="-5439.47" gradientUnits="userSpaceOnUse">
<stop stop-color="#DE1A22"/>
<stop offset="1" stop-color="#230000"/>
</linearGradient>
</defs>
</svg>
